<svg width="41" height="40" viewBox="0 0 41 40" fill="none" xmlns="http://www.w3.org/2000/svg">
<g id="coffee-cup">
<path id="Vector" d="M28.8333 18.9333V25C28.8333 30.5228 24.3561 35 18.8332 35H15.4999C9.97707 35 5.49992 30.5228 5.49992 25V18.9333C5.49992 18.602 5.76855 18.3333 6.09992 18.3333H28.2333C28.5646 18.3333 28.8333 18.602 28.8333 18.9333Z" stroke="#403F3D" stroke-width="2" stroke-linecap="round" stroke-linejoin="round"/>
<path id="Vector 13" d="M20.4999 15C20.4999 13.3334 21.6904 11.6667 24.0713 11.6667C24.5919 11.6667 25.2136 11.6667 25.8333 11.6667C27.4901 11.6667 28.8333 10.3236 28.8333 8.66671V5.83337" stroke="#403F3D" stroke-width="2" stroke-linecap="round" stroke-linejoin="round"/>
<path id="Vector 14" d="M13.8334 15V12.1667C13.8334 10.5098 15.1766 9.16667 16.8334 9.16667H20.1667C21.2713 9.16667 22.1667 8.27124 22.1667 7.16667V5" stroke="#403F3D" stroke-width="2" stroke-linecap="round" stroke-linejoin="round"/>
<path id="Vector_2" d="M27.1667 18.3334H31.3334C33.6346 18.3334 35.5001 20.1989 35.5001 22.5C35.5001 24.8012 33.6346 26.6667 31.3334 26.6667H28.8334" stroke="#403F3D" stroke-width="2" stroke-linecap="round" stroke-linejoin="round"/>
</g>
</svg>
